<?xml version="1.0" encoding="UTF-8" standalone="no"?>
<!-- Created with Inkscape (http://www.inkscape.org/) -->

<svg
   width="210mm"
   height="297mm"
   viewBox="0 0 210 297"
   version="1.1"
   id="svg5"
   xml:space="preserve"
   inkscape:version="1.2.2 (732a01da63, 2022-12-09)"
   sodipodi:docname="mofus.svg"
   xmlns:inkscape="http://www.inkscape.org/namespaces/inkscape"
   xmlns:sodipodi="http://sodipodi.sourceforge.net/DTD/sodipodi-0.dtd"
   xmlns="http://www.w3.org/2000/svg"
   xmlns:svg="http://www.w3.org/2000/svg"><sodipodi:namedview
     id="namedview7"
     pagecolor="#ffffff"
     bordercolor="#666666"
     borderopacity="1.0"
     inkscape:showpageshadow="2"
     inkscape:pageopacity="0.0"
     inkscape:pagecheckerboard="0"
     inkscape:deskcolor="#d1d1d1"
     inkscape:document-units="mm"
     showgrid="false"
     inkscape:zoom="0.5946522"
     inkscape:cx="47.086347"
     inkscape:cy="449.00195"
     inkscape:window-width="1920"
     inkscape:window-height="1017"
     inkscape:window-x="-8"
     inkscape:window-y="-8"
     inkscape:window-maximized="1"
     inkscape:current-layer="layer1" /><defs
     id="defs2" /><g
     inkscape:label="Capa 1"
     inkscape:groupmode="layer"
     id="layer1"><path
       d="m 121.22508,225.28755 c 10.21131,-2.55712 25.11838,-9.33693 31.68271,-14.40943 11.19795,-8.65313 19.68833,-17.75501 20.89907,-22.40436 0.48777,-1.87384 1.00021,-2.12073 4.84741,-2.33577 4.02928,-0.22554 4.28893,-0.36772 4.09903,-2.25163 -0.1111,-1.10616 -0.99887,-3.68557 -1.97191,-5.73198 l -1.7691,-3.72084 3.0152,-6.20563 c 2.97324,-6.11919 3.01526,-6.34965 3.01526,-16.53949 0,-14.83002 -2.07643,-23.35967 -8.85463,-36.37402 C 171.44201,106.20182 165.38858,98.328127 157.82035,91.423362 141.54876,76.578297 127.24995,70.608049 106.14325,69.8463 96.27859,69.490155 94.462998,69.654974 86.575643,71.617734 75.981155,74.254675 65.794537,79.205932 56.693075,86.142369 38.539732,99.977441 26.649137,122.51912 25.069607,146.09272 c -0.574108,8.56834 1.09906,18.84667 3.942335,24.21837 2.173438,4.10616 2.049108,5.55633 -0.888018,10.35737 -3.368604,5.50644 -3.265202,5.95056 1.246465,5.35455 l 3.750449,-0.49548 2.067407,3.93222 c 4.348164,8.27018 16.905913,20.1941 28.239571,26.81424 17.472066,10.20571 39.388084,13.62356 57.797264,9.01356 z M 89.485524,212.31671 c -7.532679,-1.55547 -16.966486,-5.08638 -23.79685,-8.90665 -5.827793,-3.25959 -20.871222,-16.85447 -20.871222,-18.86157 0,-0.66979 3.131159,-3.06199 6.958132,-5.31589 3.935784,-2.31808 8.968114,-6.19064 11.585742,-8.91567 l 4.627682,-4.81758 2.308456,5.23512 c 5.698551,12.92303 21.461616,22.18102 35.811936,21.03314 11.62924,-0.93016 25.84562,-11.95733 29.39096,-22.79763 0.78988,-2.41501 1.69207,-4.39093 2.00486,-4.39093 0.31283,0 1.60276,1.43813 2.86662,3.19587 3.72554,5.18144 9.59115,9.9193 16.49707,13.32515 3.55582,1.75366 6.46676,3.4101 6.46869,3.68099 0.0105,1.14117 -14.3069,13.61156 -18.84645,16.41776 -7.58677,4.68982 -17.60447,9.05007 -24.89518,10.83577 -7.98601,1.95606 -21.39577,2.0817 -30.110446,0.28193 z m 2.292767,-33.27867 c -9.070663,-4.36865 -15.190077,-12.79854 -17.030882,-23.46116 -0.968406,-5.60911 -0.463089,-15.96614 0.95375,-19.55845 l 0.911523,-2.3107 1.268676,2.36305 c 1.883299,3.50788 4.091512,5.5103 8.921224,8.08997 4.105561,2.19288 4.878854,2.31776 14.355408,2.31776 9.27934,0 10.39965,-0.17109 15.23068,-2.32127 3.09783,-1.37895 6.60144,-3.77136 8.63108,-5.89353 1.87906,-1.96479 3.57166,-3.42277 3.76135,-3.23994 1.05096,1.01293 2.13463,10.74306 1.83016,16.43313 -0.4765,8.90262 -4.41132,16.83071 -11.28418,22.73475 -8.81442,7.5719 -18.39157,9.25668 -27.548789,4.84639 z m 23.569129,-11.6514 c 3.65592,-0.9266 11.26811,-5.80558 11.26811,-7.22217 0,-1.62468 -0.18458,-1.57876 -4.34021,1.07842 -5.20888,3.33078 -8.4013,4.14065 -16.32203,4.14065 -10.986214,0 -19.325813,-2.52657 -26.477222,-8.02154 -3.721146,-2.8593 -5.122905,-1.92358 -1.98713,1.3265 3.26253,3.38133 9.052952,6.86213 13.994279,8.4123 3.577983,1.12248 6.614003,1.40064 13.013493,1.19231 4.5907,-0.14939 9.47353,-0.55736 10.85071,-0.90647 z m -77.481924,-0.99749 c -3.491755,-12.15147 -3.683159,-23.86557 -0.561874,-34.38525 3.386636,-11.4138 14.134377,-27.22133 23.055498,-33.909504 22.473542,-16.848452 50.12575,-19.288805 75.43869,-6.657543 13.15976,6.566744 27.02112,19.908217 32.94773,31.712017 3.21741,6.40783 6.28112,20.10802 6.28112,28.08749 0,5.57744 -1.13615,12.46986 -2.64453,16.04248 -0.94237,2.23219 -1.11597,2.28859 -6.1001,1.98271 -13.2096,-0.81066 -23.49508,-10.77395 -25.89924,-25.08793 -2.25458,-13.4236 -4.76415,-19.45549 -11.19093,-26.89795 -5.75332,-6.66254 -9.64135,-9.27042 -17.65709,-11.84331 -3.64139,-1.16882 -6.62075,-2.56926 -6.62075,-3.11201 0,-0.5428 -0.52265,-1.67592 -1.16169,-2.518085 -0.98703,-1.301034 -1.36356,-1.369804 -2.50403,-0.457357 -0.73826,0.590562 -1.34231,1.682172 -1.34231,2.425802 0,0.96483 -1.67156,1.87095 -5.835943,3.16368 -8.301654,2.57693 -15.461597,7.48602 -19.706628,13.51131 -4.651018,6.60163 -8.495742,16.47543 -9.860157,25.32214 -0.945688,6.13203 -1.607909,7.92679 -4.349291,11.78725 -4.177791,5.88327 -8.853924,10.24581 -14.078142,13.13402 -5.980176,3.30614 -6.653663,3.11746 -8.210333,-2.29983 z"
       style="fill:#6941d0;fill-opacity:1;stroke-width:0.819432"
       id="path993" /></g></svg>
